<?xml version="1.0" encoding="utf-8"?>
<!-- Generator: Adobe Illustrator 26.0.1, SVG Export Plug-In . SVG Version: 6.00 Build 0)  -->
<svg version="1.1" id="图层_1" xmlns="http://www.w3.org/2000/svg" xmlns:xlink="http://www.w3.org/1999/xlink" x="0px" y="0px"
	 viewBox="0 0 293.91 77.34" style="enable-background:new 0 0 293.91 77.34;" xml:space="preserve">
<style type="text/css">
	.st0{fill:#415FFF;}
</style>
<g>
	<path id="XMLID_00000096747081115233599300000014623801110078261652_" class="st0" d="M265.51,64.53h-25.27
		c-14.2,0-15.47-11.66-15.47-15.21c0-3.56,1.27-15.21,15.47-15.21h25.27c14.2,0,15.47,11.65,15.47,15.21
		C280.98,52.88,279.71,64.53,265.51,64.53 M265.51,21.3h-25.27c-26.26,0-28.6,21.47-28.6,28.02c0,6.56,2.33,28.02,28.6,28.02h25.27
		c26.26,0,28.6-21.46,28.6-28.02C294.11,42.77,291.77,21.3,265.51,21.3"/>
	<path id="XMLID_00000170250247505947390950000017587712987833256862_" class="st0" d="M206.57,22.61h-8.19
		c-3.51,0-4.24,0.6-5.58,2.61c-1.35,2-24.79,37.76-24.79,37.76c-0.74,1.1-1.53,1.55-2.52,1.55c-0.99,0-1.78-0.45-2.52-1.55
		c0,0-23.43-35.76-24.78-37.76c-1.35-2.02-2.08-2.61-5.59-2.61h-8.19c-1.89,0-2.75,1.48-1.56,3.27c1.18,1.8,27.98,42.49,27.98,42.49
		c4.34,6.38,7.53,8.96,14.66,8.96c7.13,0,10.32-2.58,14.66-8.96c0,0,26.79-40.69,27.99-42.49
		C209.32,24.09,208.46,22.61,206.57,22.61"/>
	<path id="XMLID_00000031200991924751992120000018435359140369486473_" class="st0" d="M97.8,26.09c0-2.48,0.99-3.47,3.47-3.47h6.19
		c2.48,0,3.47,0.99,3.47,3.47v47.79c0,2.48-0.99,3.47-3.47,3.47h-6.19c-2.48,0-3.47-0.99-3.47-3.47V26.09z"/>
	<path id="XMLID_00000152980515251182235700000015088195603718542478_" class="st0" d="M97.23,11.46c-2.02-2.02-2.02-3.62,0-5.63
		l4.31-4.32c2.02-2.02,3.62-2.02,5.64,0l4.31,4.32c2.02,2.02,2.02,3.62,0,5.63l-4.31,4.31c-2.02,2.02-3.62,2.02-5.64,0L97.23,11.46z
		"/>
	<path id="XMLID_00000108297483353543451290000015363946694541933480_" class="st0" d="M84.31,22.61h-8.19
		c-3.51,0-4.24,0.6-5.58,2.61c-1.35,2-24.79,37.76-24.79,37.76c-0.74,1.1-1.53,1.55-2.52,1.55c-0.99,0-1.78-0.45-2.52-1.55
		c0,0-23.43-35.76-24.78-37.76c-1.35-2.01-2.08-2.61-5.59-2.61H2.15c-2.11,0-2.75,1.48-1.56,3.27c1.18,1.8,27.98,42.48,27.98,42.48
		c4.34,6.39,7.53,8.97,14.66,8.97s10.32-2.58,14.66-8.97c0,0,26.79-40.68,27.99-42.48C87.06,24.09,86.41,22.61,84.31,22.61"/>
</g>
</svg>
